# xmcd CD database file
#
# Track frame offsets:
#	150
#	19923
#	59364
#	99351
#	121440
#	152590
#	192967
#	211197
#
# Disc length: 3217 seconds
#
# Revision: 0
# Processed by: cddbd v1.5.2PL0 Copyright (c) Steve Scherf et al.
# Submitted via: CDex 1.70beta2
#
DISCID=640c8f08
DTITLE=divya - your home is my heart
DYEAR=2003
DGENRE=New Age
TTITLE0=om shri ganeshaya namaha
TTITLE1=sita ram
TTITLE2=back to you
TTITLE3=om namah shivaya lullaby
TTITLE4=om namo narayenaye
TTITLE5=om namah shivaya
TTITLE6=your home is my heart
TTITLE7=o sweet love
EXTD=YEAR: 2003
EXTT0=
EXTT1=
EXTT2=
EXTT3=
EXTT4=
EXTT5=
EXTT6=
EXTT7=
PLAYORDER=
